<svg width="33" height="37" viewBox="0 0 33 37" fill="none" xmlns="http://www.w3.org/2000/svg">
<path d="M0.0500001 0.999998H14.6V6H5.55V15.75H12.65V20.75H5.55V36H0.0500001V0.999998ZM24.3875 36.5C21.7208 36.5 19.7042 35.75 18.3375 34.25C16.9708 32.7167 16.2875 30.5333 16.2875 27.7V25.7H21.4875V28.1C21.4875 30.3667 22.4375 31.5 24.3375 31.5C25.2708 31.5 25.9708 31.2333 26.4375 30.7C26.9375 30.1333 27.1875 29.2333 27.1875 28C27.1875 26.5333 26.8542 25.25 26.1875 24.15C25.5208 23.0167 24.2875 21.6667 22.4875 20.1C20.2208 18.1 18.6375 16.3 17.7375 14.7C16.8375 13.0667 16.3875 11.2333 16.3875 9.2C16.3875 6.43333 17.0875 4.3 18.4875 2.8C19.8875 1.26666 21.9208 0.499998 24.5875 0.499998C27.2208 0.499998 29.2042 1.26666 30.5375 2.8C31.9042 4.3 32.5875 6.46667 32.5875 9.3V10.75H27.3875V8.95C27.3875 7.75 27.1542 6.88333 26.6875 6.35C26.2208 5.78333 25.5375 5.5 24.6375 5.5C22.8042 5.5 21.8875 6.61667 21.8875 8.85C21.8875 10.1167 22.2208 11.3 22.8875 12.4C23.5875 13.5 24.8375 14.8333 26.6375 16.4C28.9375 18.4 30.5208 20.2167 31.3875 21.85C32.2542 23.4833 32.6875 25.4 32.6875 27.6C32.6875 30.4667 31.9708 32.6667 30.5375 34.2C29.1375 35.7333 27.0875 36.5 24.3875 36.5Z" fill="#E0E0E0"/>
</svg>
