<svg width="162" height="30" viewBox="0 0 162 30" fill="none" xmlns="http://www.w3.org/2000/svg">
<path d="M0.64 0.999998H12.28V5H5.04V12.8H10.72V16.8H5.04V29H0.64V0.999998ZM14.39 0.999998H20.91C23.1767 0.999998 24.83 1.53333 25.87 2.6C26.91 3.64 27.43 5.25333 27.43 7.44V9.16C27.43 12.0667 26.47 13.9067 24.55 14.68V14.76C25.6167 15.08 26.3633 15.7333 26.79 16.72C27.2433 17.7067 27.47 19.0267 27.47 20.68V25.6C27.47 26.4 27.4967 27.0533 27.55 27.56C27.6033 28.04 27.7367 28.52 27.95 29H23.47C23.31 28.5467 23.2033 28.12 23.15 27.72C23.0967 27.32 23.07 26.6 23.07 25.56V20.44C23.07 19.16 22.8567 18.2667 22.43 17.76C22.03 17.2533 21.3233 17 20.31 17H18.79V29H14.39V0.999998ZM20.39 13C21.27 13 21.9233 12.7733 22.35 12.32C22.8033 11.8667 23.03 11.1067 23.03 10.04V7.88C23.03 6.86667 22.8433 6.13333 22.47 5.68C22.1233 5.22667 21.5633 5 20.79 5H18.79V13H20.39ZM33.9228 0.999998H39.8828L44.4428 29H40.0428L39.2428 23.44V23.52H34.2428L33.4428 29H29.3628L33.9228 0.999998ZM38.7228 19.72L36.7628 5.88H36.6828L34.7628 19.72H38.7228ZM52.8994 29.4C50.766 29.4 49.1394 28.8 48.0194 27.6C46.8994 26.3733 46.3394 24.6267 46.3394 22.36V0.999998H50.7394V22.68C50.7394 23.64 50.926 24.3333 51.2994 24.76C51.6994 25.1867 52.2594 25.4 52.9794 25.4C53.6994 25.4 54.246 25.1867 54.6194 24.76C55.0194 24.3333 55.2194 23.64 55.2194 22.68V0.999998H59.4594V22.36C59.4594 24.6267 58.8994 26.3733 57.7794 27.6C56.6594 28.8 55.0327 29.4 52.8994 29.4ZM62.5931 0.999998H69.3131C71.4998 0.999998 73.1398 1.58667 74.2331 2.76C75.3265 3.93333 75.8731 5.65333 75.8731 7.92V22.08C75.8731 24.3467 75.3265 26.0667 74.2331 27.24C73.1398 28.4133 71.4998 29 69.3131 29H62.5931V0.999998ZM69.2331 25C69.9531 25 70.4998 24.7867 70.8731 24.36C71.2731 23.9333 71.4731 23.24 71.4731 22.28V7.72C71.4731 6.76 71.2731 6.06667 70.8731 5.64C70.4998 5.21333 69.9531 5 69.2331 5H66.9931V25H69.2331ZM84.5631 29.4C82.4298 29.4 80.8165 28.8 79.7231 27.6C78.6298 26.3733 78.0831 24.6267 78.0831 22.36V20.76H82.2431V22.68C82.2431 24.4933 83.0031 25.4 84.5231 25.4C85.2698 25.4 85.8298 25.1867 86.2031 24.76C86.6031 24.3067 86.8031 23.5867 86.8031 22.6C86.8031 21.4267 86.5365 20.4 86.0031 19.52C85.4698 18.6133 84.4831 17.5333 83.0431 16.28C81.2298 14.68 79.9631 13.24 79.2431 11.96C78.5231 10.6533 78.1631 9.18667 78.1631 7.56C78.1631 5.34667 78.7231 3.64 79.8431 2.44C80.9631 1.21333 82.5898 0.599998 84.7231 0.599998C86.8298 0.599998 88.4165 1.21333 89.4831 2.44C90.5765 3.64 91.1231 5.37333 91.1231 7.64V8.8H86.9631V7.36C86.9631 6.4 86.7765 5.70667 86.4031 5.28C86.0298 4.82667 85.4831 4.6 84.7631 4.6C83.2965 4.6 82.5631 5.49333 82.5631 7.28C82.5631 8.29333 82.8298 9.24 83.3631 10.12C83.9231 11 84.9231 12.0667 86.3631 13.32C88.2031 14.92 89.4698 16.3733 90.1631 17.68C90.8565 18.9867 91.2031 20.52 91.2031 22.28C91.2031 24.5733 90.6298 26.3333 89.4831 27.56C88.3631 28.7867 86.7231 29.4 84.5631 29.4ZM93.7259 0.999998H99.2459L103.526 17.76H103.606V0.999998H107.526V29H103.006L97.7259 8.56H97.6459V29H93.7259V0.999998ZM110.796 0.999998H115.196V29H110.796V0.999998ZM121.932 5H117.332V0.999998H130.932V5H126.332V29H121.932V5ZM139.106 29.4C136.999 29.4 135.386 28.8 134.266 27.6C133.172 26.4 132.626 24.7067 132.626 22.52V7.48C132.626 5.29333 133.172 3.6 134.266 2.4C135.386 1.2 136.999 0.599998 139.106 0.599998C141.212 0.599998 142.812 1.2 143.906 2.4C145.026 3.6 145.586 5.29333 145.586 7.48V10.44H141.426V7.2C141.426 5.46667 140.692 4.6 139.226 4.6C137.759 4.6 137.026 5.46667 137.026 7.2V22.84C137.026 24.5467 137.759 25.4 139.226 25.4C140.692 25.4 141.426 24.5467 141.426 22.84V18.56H145.586V22.52C145.586 24.7067 145.026 26.4 143.906 27.6C142.812 28.8 141.212 29.4 139.106 29.4ZM148.218 0.999998H152.618V12.4H157.338V0.999998H161.738V29H157.338V16.4H152.618V29H148.218V0.999998Z" fill="#E0E0E0"/>
</svg>
